<?xml version="1.0" encoding="UTF-8"?>
<svg width="24" height="24" viewBox="0 0 24 24" fill="none" xmlns="http://www.w3.org/2000/svg">
  <rect width="24" height="24" rx="12" fill="#F43F5E"/>
  <path d="M7 12C7 11.4477 7.44772 11 8 11C8.55228 11 9 11.4477 9 12V14C9 14.5523 8.55228 15 8 15C7.44772 15 7 14.5523 7 14V12Z" fill="white"/>
  <path d="M11 8C11 7.44772 11.4477 7 12 7C12.5523 7 13 7.44772 13 8V16C13 16.5523 12.5523 17 12 17C11.4477 17 11 16.5523 11 16V8Z" fill="white"/>
  <path d="M15 10C15 9.44772 15.4477 9 16 9C16.5523 9 17 9.44772 17 10V13C17 13.5523 16.5523 14 16 14C15.4477 14 15 13.5523 15 13V10Z" fill="white"/>
</svg> 