<?xml version="1.0" encoding="UTF-8"?>
<svg width="24" height="24" viewBox="0 0 24 24" fill="none" xmlns="http://www.w3.org/2000/svg">
  <rect width="24" height="24" rx="12" fill="#8B5CF6"/>
  <path d="M12 6C15.3137 6 18 8.68629 18 12C18 15.3137 15.3137 18 12 18C8.68629 18 6 15.3137 6 12C6 8.68629 8.68629 6 12 6Z" fill="white" fill-opacity="0.2"/>
  <path d="M12 8C14.2091 8 16 9.79086 16 12C16 14.2091 14.2091 16 12 16C9.79086 16 8 14.2091 8 12C8 9.79086 9.79086 8 12 8Z" fill="white" fill-opacity="0.4"/>
  <circle cx="12" cy="12" r="2" fill="white"/>
  <path d="M15 9L16 8M8 16L9 15M16 16L15 15M8 8L9 9" stroke="white" stroke-width="2" stroke-linecap="round"/>
</svg> 